<svg xmlns="http://www.w3.org/2000/svg" width="229.689" height="233.887" viewBox="0 0 229.689 233.887">
  <g id="Group_11" data-name="Group 11" transform="translate(609.344 2778.475)">
    <g id="Group_10" data-name="Group 10" transform="translate(1510.779 -1055.656) rotate(-17)">
      <g id="Polygon_13" data-name="Polygon 13" transform="translate(-1444 -2221)" fill="#c3b1e1">
        <path d="M 35.13150405883789 30.5 L 0.8684951663017273 30.5 L 18 0.9957416653633118 L 35.13150405883789 30.5 Z" stroke="none"/>
        <path d="M 18 1.991500854492188 L 1.73699951171875 30 L 34.26300048828125 30 L 18 1.991500854492188 M 18 0 L 36 31 L 0 31 L 18 0 Z" stroke="none" fill="#000"/>
      </g>
      <g id="Polygon_14" data-name="Polygon 14" transform="translate(-1390 -2190) rotate(180)" fill="#c3b1e1">
        <path d="M 35.13150405883789 30.5 L 0.8684951663017273 30.5 L 18 0.9957416653633118 L 35.13150405883789 30.5 Z" stroke="none"/>
        <path d="M 18 1.991500854492188 L 1.73699951171875 30 L 34.26300048828125 30 L 18 1.991500854492188 M 18 0 L 36 31 L 0 31 L 18 0 Z" stroke="none" fill="#000"/>
      </g>
      <g id="Polygon_15" data-name="Polygon 15" transform="translate(-1408 -2221)" fill="#c3b1e1">
        <path d="M 35.13150405883789 30.5 L 0.8684951663017273 30.5 L 18 0.9957416653633118 L 35.13150405883789 30.5 Z" stroke="none"/>
        <path d="M 18 1.991500854492188 L 1.73699951171875 30 L 34.26300048828125 30 L 18 1.991500854492188 M 18 0 L 36 31 L 0 31 L 18 0 Z" stroke="none" fill="#000"/>
      </g>
      <g id="Polygon_20" data-name="Polygon 20" transform="translate(-1462 -2190)" fill="#c3b1e1">
        <path d="M 35.14507293701172 31.5 L 0.8549256324768066 31.5 L 18 1.019867777824402 L 35.14507293701172 31.5 Z" stroke="none"/>
        <path d="M 18 2.039735794067383 L 1.709850311279297 31 L 34.2901496887207 31 L 18 2.039735794067383 M 18 0 L 36 32 L 0 32 L 18 0 Z" stroke="none" fill="#000"/>
      </g>
      <g id="Polygon_21" data-name="Polygon 21" transform="translate(-1408 -2158) rotate(180)" fill="#c3b1e1">
        <path d="M 35.14507293701172 31.5 L 0.8549256324768066 31.5 L 18 1.019867777824402 L 35.14507293701172 31.5 Z" stroke="none"/>
        <path d="M 18 2.039735794067383 L 1.709850311279297 31 L 34.2901496887207 31 L 18 2.039735794067383 M 18 0 L 36 32 L 0 32 L 18 0 Z" stroke="none" fill="#000"/>
      </g>
      <g id="Polygon_22" data-name="Polygon 22" transform="translate(-1426 -2190)" fill="#c3b1e1">
        <path d="M 35.14507293701172 31.5 L 0.8549256324768066 31.5 L 18 1.019867777824402 L 35.14507293701172 31.5 Z" stroke="none"/>
        <path d="M 18 2.039735794067383 L 1.709850311279297 31 L 34.2901496887207 31 L 18 2.039735794067383 M 18 0 L 36 32 L 0 32 L 18 0 Z" stroke="none" fill="#000"/>
      </g>
      <g id="Polygon_27" data-name="Polygon 27" transform="translate(-1444 -2221)" fill="#c3b1e1">
        <path d="M 35.13150405883789 30.5 L 0.8684951663017273 30.5 L 18 0.9957416653633118 L 35.13150405883789 30.5 Z" stroke="none"/>
        <path d="M 18 1.991500854492188 L 1.73699951171875 30 L 34.26300048828125 30 L 18 1.991500854492188 M 18 0 L 36 31 L 0 31 L 18 0 Z" stroke="none" fill="#000"/>
      </g>
      <g id="Polygon_28" data-name="Polygon 28" transform="translate(-1390 -2190) rotate(180)" fill="#c3b1e1">
        <path d="M 35.13150405883789 30.5 L 0.8684951663017273 30.5 L 18 0.9957416653633118 L 35.13150405883789 30.5 Z" stroke="none"/>
        <path d="M 18 1.991500854492188 L 1.73699951171875 30 L 34.26300048828125 30 L 18 1.991500854492188 M 18 0 L 36 31 L 0 31 L 18 0 Z" stroke="none" fill="#000"/>
      </g>
      <g id="Polygon_29" data-name="Polygon 29" transform="translate(-1408 -2221)" fill="#c3b1e1">
        <path d="M 35.13150405883789 30.5 L 0.8684951663017273 30.5 L 18 0.9957416653633118 L 35.13150405883789 30.5 Z" stroke="none"/>
        <path d="M 18 1.991500854492188 L 1.73699951171875 30 L 34.26300048828125 30 L 18 1.991500854492188 M 18 0 L 36 31 L 0 31 L 18 0 Z" stroke="none" fill="#000"/>
      </g>
      <g id="Polygon_30" data-name="Polygon 30" transform="translate(-1372 -2158) rotate(180)" fill="#c3b1e1">
        <path d="M 35.14507293701172 31.5 L 0.8549256324768066 31.5 L 18 1.019867777824402 L 35.14507293701172 31.5 Z" stroke="none"/>
        <path d="M 18 2.039735794067383 L 1.709850311279297 31 L 34.2901496887207 31 L 18 2.039735794067383 M 18 0 L 36 32 L 0 32 L 18 0 Z" stroke="none" fill="#000"/>
      </g>
      <g id="Polygon_31" data-name="Polygon 31" transform="translate(-1390 -2190)" fill="#c3b1e1">
        <path d="M 35.14507293701172 31.5 L 0.8549256324768066 31.5 L 18 1.019867777824402 L 35.14507293701172 31.5 Z" stroke="none"/>
        <path d="M 18 2.039735794067383 L 1.709850311279297 31 L 34.2901496887207 31 L 18 2.039735794067383 M 18 0 L 36 32 L 0 32 L 18 0 Z" stroke="none" fill="#000"/>
      </g>
      <g id="Polygon_32" data-name="Polygon 32" transform="translate(-1372 -2158) rotate(180)" fill="#c3b1e1">
        <path d="M 35.14507293701172 31.5 L 0.8549256324768066 31.5 L 18 1.019867777824402 L 35.14507293701172 31.5 Z" stroke="none"/>
        <path d="M 18 2.039735794067383 L 1.709850311279297 31 L 34.2901496887207 31 L 18 2.039735794067383 M 18 0 L 36 32 L 0 32 L 18 0 Z" stroke="none" fill="#000"/>
      </g>
      <g id="Polygon_33" data-name="Polygon 33" transform="translate(-1390 -2190)" fill="#c3b1e1">
        <path d="M 35.14507293701172 31.5 L 0.8549256324768066 31.5 L 18 1.019867777824402 L 35.14507293701172 31.5 Z" stroke="none"/>
        <path d="M 18 2.039735794067383 L 1.709850311279297 31 L 34.2901496887207 31 L 18 2.039735794067383 M 18 0 L 36 32 L 0 32 L 18 0 Z" stroke="none" fill="#000"/>
      </g>
      <g id="Polygon_39" data-name="Polygon 39" transform="translate(-1426 -2127) rotate(180)" fill="#c3b1e1">
        <path d="M 35.13150405883789 30.5 L 0.8684951663017273 30.5 L 18 0.9957416653633118 L 35.13150405883789 30.5 Z" stroke="none"/>
        <path d="M 18 1.991500854492188 L 1.73699951171875 30 L 34.26300048828125 30 L 18 1.991500854492188 M 18 0 L 36 31 L 0 31 L 18 0 Z" stroke="none" fill="#000"/>
      </g>
      <g id="Polygon_40" data-name="Polygon 40" transform="translate(-1444 -2158)" fill="#c3b1e1">
        <path d="M 35.13150405883789 30.5 L 0.8684951663017273 30.5 L 18 0.9957416653633118 L 35.13150405883789 30.5 Z" stroke="none"/>
        <path d="M 18 1.991500854492188 L 1.73699951171875 30 L 34.26300048828125 30 L 18 1.991500854492188 M 18 0 L 36 31 L 0 31 L 18 0 Z" stroke="none" fill="#000"/>
      </g>
      <g id="Polygon_41" data-name="Polygon 41" transform="translate(-1390 -2127) rotate(180)" fill="#c3b1e1">
        <path d="M 35.13150405883789 30.5 L 0.8684951663017273 30.5 L 18 0.9957416653633118 L 35.13150405883789 30.5 Z" stroke="none"/>
        <path d="M 18 1.991500854492188 L 1.73699951171875 30 L 34.26300048828125 30 L 18 1.991500854492188 M 18 0 L 36 31 L 0 31 L 18 0 Z" stroke="none" fill="#000"/>
      </g>
      <g id="Polygon_42" data-name="Polygon 42" transform="translate(-1408 -2158)" fill="#c3b1e1">
        <path d="M 35.13150405883789 30.5 L 0.8684951663017273 30.5 L 18 0.9957416653633118 L 35.13150405883789 30.5 Z" stroke="none"/>
        <path d="M 18 1.991500854492188 L 1.73699951171875 30 L 34.26300048828125 30 L 18 1.991500854492188 M 18 0 L 36 31 L 0 31 L 18 0 Z" stroke="none" fill="#000"/>
      </g>
      <g id="Polygon_43" data-name="Polygon 43" transform="translate(-1390 -2127) rotate(180)" fill="#c3b1e1">
        <path d="M 35.13150405883789 30.5 L 0.8684951663017273 30.5 L 18 0.9957416653633118 L 35.13150405883789 30.5 Z" stroke="none"/>
        <path d="M 18 1.991500854492188 L 1.73699951171875 30 L 34.26300048828125 30 L 18 1.991500854492188 M 18 0 L 36 31 L 0 31 L 18 0 Z" stroke="none" fill="#000"/>
      </g>
      <g id="Polygon_44" data-name="Polygon 44" transform="translate(-1408 -2158)" fill="#c3b1e1">
        <path d="M 35.13150405883789 30.5 L 0.8684951663017273 30.5 L 18 0.9957416653633118 L 35.13150405883789 30.5 Z" stroke="none"/>
        <path d="M 18 1.991500854492188 L 1.73699951171875 30 L 34.26300048828125 30 L 18 1.991500854492188 M 18 0 L 36 31 L 0 31 L 18 0 Z" stroke="none" fill="#000"/>
      </g>
      <g id="Polygon_45" data-name="Polygon 45" transform="translate(-1354 -2127) rotate(180)" fill="#c3b1e1">
        <path d="M 35.13150405883789 30.5 L 0.8684951663017273 30.5 L 18 0.9957416653633118 L 35.13150405883789 30.5 Z" stroke="none"/>
        <path d="M 18 1.991500854492188 L 1.73699951171875 30 L 34.26300048828125 30 L 18 1.991500854492188 M 18 0 L 36 31 L 0 31 L 18 0 Z" stroke="none" fill="#000"/>
      </g>
      <g id="Polygon_46" data-name="Polygon 46" transform="translate(-1372 -2158)" fill="#c3b1e1">
        <path d="M 35.13150405883789 30.5 L 0.8684951663017273 30.5 L 18 0.9957416653633118 L 35.13150405883789 30.5 Z" stroke="none"/>
        <path d="M 18 1.991500854492188 L 1.73699951171875 30 L 34.26300048828125 30 L 18 1.991500854492188 M 18 0 L 36 31 L 0 31 L 18 0 Z" stroke="none" fill="#000"/>
      </g>
      <g id="Polygon_47" data-name="Polygon 47" transform="translate(-1372 -2033) rotate(180)" fill="#c3b1e1">
        <path d="M 35.14507293701172 31.5 L 0.8549256324768066 31.5 L 18 1.019867777824402 L 35.14507293701172 31.5 Z" stroke="none"/>
        <path d="M 18 2.039735794067383 L 1.709850311279297 31 L 34.2901496887207 31 L 18 2.039735794067383 M 18 0 L 36 32 L 0 32 L 18 0 Z" stroke="none" fill="#000"/>
      </g>
      <g id="Polygon_48" data-name="Polygon 48" transform="translate(-1426 -2065)" fill="#c3b1e1">
        <path d="M 35.14507293701172 31.5 L 0.8549256324768066 31.5 L 18 1.019867777824402 L 35.14507293701172 31.5 Z" stroke="none"/>
        <path d="M 18 2.039735794067383 L 1.709850311279297 31 L 34.2901496887207 31 L 18 2.039735794067383 M 18 0 L 36 32 L 0 32 L 18 0 Z" stroke="none" fill="#000"/>
      </g>
      <g id="Polygon_49" data-name="Polygon 49" transform="translate(-1408 -2033) rotate(180)" fill="#c3b1e1">
        <path d="M 35.14507293701172 31.5 L 0.8549256324768066 31.5 L 18 1.019867777824402 L 35.14507293701172 31.5 Z" stroke="none"/>
        <path d="M 18 2.039735794067383 L 1.709850311279297 31 L 34.2901496887207 31 L 18 2.039735794067383 M 18 0 L 36 32 L 0 32 L 18 0 Z" stroke="none" fill="#000"/>
      </g>
      <g id="Polygon_50" data-name="Polygon 50" transform="translate(-1462 -2065)" fill="#c3b1e1">
        <path d="M 35.14507293701172 31.5 L 0.8549256324768066 31.5 L 18 1.019867777824402 L 35.14507293701172 31.5 Z" stroke="none"/>
        <path d="M 18 2.039735794067383 L 1.709850311279297 31 L 34.2901496887207 31 L 18 2.039735794067383 M 18 0 L 36 32 L 0 32 L 18 0 Z" stroke="none" fill="#000"/>
      </g>
      <g id="Polygon_54" data-name="Polygon 54" transform="translate(-1354 -2065) rotate(180)" fill="#c3b1e1">
        <path d="M 35.13150405883789 30.5 L 0.8684951663017273 30.5 L 18 0.9957416653633118 L 35.13150405883789 30.5 Z" stroke="none"/>
        <path d="M 18 1.991500854492188 L 1.73699951171875 30 L 34.26300048828125 30 L 18 1.991500854492188 M 18 0 L 36 31 L 0 31 L 18 0 Z" stroke="none" fill="#000"/>
      </g>
      <g id="Polygon_55" data-name="Polygon 55" transform="translate(-1408 -2096)" fill="#c3b1e1">
        <path d="M 35.13150405883789 30.5 L 0.8684951663017273 30.5 L 18 0.9957416653633118 L 35.13150405883789 30.5 Z" stroke="none"/>
        <path d="M 18 1.991500854492188 L 1.73699951171875 30 L 34.26300048828125 30 L 18 1.991500854492188 M 18 0 L 36 31 L 0 31 L 18 0 Z" stroke="none" fill="#000"/>
      </g>
      <g id="Polygon_56" data-name="Polygon 56" transform="translate(-1390 -2065) rotate(180)" fill="#c3b1e1">
        <path d="M 35.13150405883789 30.5 L 0.8684951663017273 30.5 L 18 0.9957416653633118 L 35.13150405883789 30.5 Z" stroke="none"/>
        <path d="M 18 1.991500854492188 L 1.73699951171875 30 L 34.26300048828125 30 L 18 1.991500854492188 M 18 0 L 36 31 L 0 31 L 18 0 Z" stroke="none" fill="#000"/>
      </g>
      <g id="Polygon_57" data-name="Polygon 57" transform="translate(-1444 -2096)" fill="#c3b1e1">
        <path d="M 35.13150405883789 30.5 L 0.8684951663017273 30.5 L 18 0.9957416653633118 L 35.13150405883789 30.5 Z" stroke="none"/>
        <path d="M 18 1.991500854492188 L 1.73699951171875 30 L 34.26300048828125 30 L 18 1.991500854492188 M 18 0 L 36 31 L 0 31 L 18 0 Z" stroke="none" fill="#000"/>
      </g>
      <g id="Polygon_58" data-name="Polygon 58" transform="translate(-1426 -2065) rotate(180)" fill="#c3b1e1">
        <path d="M 35.13150405883789 30.5 L 0.8684951663017273 30.5 L 18 0.9957416653633118 L 35.13150405883789 30.5 Z" stroke="none"/>
        <path d="M 18 1.991500854492188 L 1.73699951171875 30 L 34.26300048828125 30 L 18 1.991500854492188 M 18 0 L 36 31 L 0 31 L 18 0 Z" stroke="none" fill="#000"/>
      </g>
      <g id="Polygon_61" data-name="Polygon 61" transform="translate(-1372 -2033) rotate(180)" fill="#c3b1e1">
        <path d="M 35.14507293701172 31.5 L 0.8549256324768066 31.5 L 18 1.019867777824402 L 35.14507293701172 31.5 Z" stroke="none"/>
        <path d="M 18 2.039735794067383 L 1.709850311279297 31 L 34.2901496887207 31 L 18 2.039735794067383 M 18 0 L 36 32 L 0 32 L 18 0 Z" stroke="none" fill="#000"/>
      </g>
      <g id="Polygon_62" data-name="Polygon 62" transform="translate(-1408 -2033) rotate(180)" fill="#c3b1e1">
        <path d="M 35.14507293701172 31.5 L 0.8549256324768066 31.5 L 18 1.019867777824402 L 35.14507293701172 31.5 Z" stroke="none"/>
        <path d="M 18 2.039735794067383 L 1.709850311279297 31 L 34.2901496887207 31 L 18 2.039735794067383 M 18 0 L 36 32 L 0 32 L 18 0 Z" stroke="none" fill="#000"/>
      </g>
      <g id="Polygon_63" data-name="Polygon 63" transform="translate(-1462 -2065)" fill="#c3b1e1">
        <path d="M 35.14507293701172 31.5 L 0.8549256324768066 31.5 L 18 1.019867777824402 L 35.14507293701172 31.5 Z" stroke="none"/>
        <path d="M 18 2.039735794067383 L 1.709850311279297 31 L 34.2901496887207 31 L 18 2.039735794067383 M 18 0 L 36 32 L 0 32 L 18 0 Z" stroke="none" fill="#000"/>
      </g>
      <g id="Polygon_71" data-name="Polygon 71" transform="translate(-1336 -2096) rotate(180)" fill="#c3b1e1">
        <path d="M 35.13150405883789 30.5 L 0.8684951663017273 30.5 L 18 0.9957416653633118 L 35.13150405883789 30.5 Z" stroke="none"/>
        <path d="M 18 1.991500854492188 L 1.73699951171875 30 L 34.26300048828125 30 L 18 1.991500854492188 M 18 0 L 36 31 L 0 31 L 18 0 Z" stroke="none" fill="#000"/>
      </g>
      <g id="Polygon_72" data-name="Polygon 72" transform="translate(-1390 -2127)" fill="#c3b1e1">
        <path d="M 35.13150405883789 30.5 L 0.8684951663017273 30.5 L 18 0.9957416653633118 L 35.13150405883789 30.5 Z" stroke="none"/>
        <path d="M 18 1.991500854492188 L 1.73699951171875 30 L 34.26300048828125 30 L 18 1.991500854492188 M 18 0 L 36 31 L 0 31 L 18 0 Z" stroke="none" fill="#000"/>
      </g>
      <g id="Polygon_73" data-name="Polygon 73" transform="translate(-1372 -2096) rotate(180)" fill="#c3b1e1">
        <path d="M 35.13150405883789 30.5 L 0.8684951663017273 30.5 L 18 0.9957416653633118 L 35.13150405883789 30.5 Z" stroke="none"/>
        <path d="M 18 1.991500854492188 L 1.73699951171875 30 L 34.26300048828125 30 L 18 1.991500854492188 M 18 0 L 36 31 L 0 31 L 18 0 Z" stroke="none" fill="#000"/>
      </g>
      <g id="Polygon_74" data-name="Polygon 74" transform="translate(-1426 -2127)" fill="#c3b1e1">
        <path d="M 35.13150405883789 30.5 L 0.8684951663017273 30.5 L 18 0.9957416653633118 L 35.13150405883789 30.5 Z" stroke="none"/>
        <path d="M 18 1.991500854492188 L 1.73699951171875 30 L 34.26300048828125 30 L 18 1.991500854492188 M 18 0 L 36 31 L 0 31 L 18 0 Z" stroke="none" fill="#000"/>
      </g>
      <g id="Polygon_75" data-name="Polygon 75" transform="translate(-1408 -2096) rotate(180)" fill="#c3b1e1">
        <path d="M 35.13150405883789 30.5 L 0.8684951663017273 30.5 L 18 0.9957416653633118 L 35.13150405883789 30.5 Z" stroke="none"/>
        <path d="M 18 1.991500854492188 L 1.73699951171875 30 L 34.26300048828125 30 L 18 1.991500854492188 M 18 0 L 36 31 L 0 31 L 18 0 Z" stroke="none" fill="#000"/>
      </g>
      <g id="Polygon_76" data-name="Polygon 76" transform="translate(-1462 -2127)" fill="#c3b1e1">
        <path d="M 35.13150405883789 30.5 L 0.8684951663017273 30.5 L 18 0.9957416653633118 L 35.13150405883789 30.5 Z" stroke="none"/>
        <path d="M 18 1.991500854492188 L 1.73699951171875 30 L 34.26300048828125 30 L 18 1.991500854492188 M 18 0 L 36 31 L 0 31 L 18 0 Z" stroke="none" fill="#000"/>
      </g>
    </g>
    <g id="Group_9" data-name="Group 9" transform="translate(1590.89 -1069.677) rotate(-17)">
      <g id="Polygon_10" data-name="Polygon 10" transform="translate(-1551 -2190) rotate(180)" fill="#86d7e3">
        <path d="M 35.13150405883789 30.5 L 0.8684951663017273 30.5 L 18 0.9957416653633118 L 35.13150405883789 30.5 Z" stroke="none"/>
        <path d="M 18 1.991500854492188 L 1.73699951171875 30 L 34.26300048828125 30 L 18 1.991500854492188 M 18 0 L 36 31 L 0 31 L 18 0 Z" stroke="none" fill="#000"/>
      </g>
      <g id="Polygon_16" data-name="Polygon 16" transform="translate(-1623 -2190)" fill="#86d7e3">
        <path d="M 35.14507293701172 31.5 L 0.8549256324768066 31.5 L 18 1.019867777824402 L 35.14507293701172 31.5 Z" stroke="none"/>
        <path d="M 18 2.039735794067383 L 1.709850311279297 31 L 34.2901496887207 31 L 18 2.039735794067383 M 18 0 L 36 32 L 0 32 L 18 0 Z" stroke="none" fill="#000"/>
      </g>
      <g id="Polygon_17" data-name="Polygon 17" transform="translate(-1569 -2158) rotate(180)" fill="#86d7e3">
        <path d="M 35.14507293701172 31.5 L 0.8549256324768066 31.5 L 18 1.019867777824402 L 35.14507293701172 31.5 Z" stroke="none"/>
        <path d="M 18 2.039735794067383 L 1.709850311279297 31 L 34.2901496887207 31 L 18 2.039735794067383 M 18 0 L 36 32 L 0 32 L 18 0 Z" stroke="none" fill="#000"/>
      </g>
      <g id="Polygon_18" data-name="Polygon 18" transform="translate(-1587 -2190)" fill="#86d7e3">
        <path d="M 35.14507293701172 31.5 L 0.8549256324768066 31.5 L 18 1.019867777824402 L 35.14507293701172 31.5 Z" stroke="none"/>
        <path d="M 18 2.039735794067383 L 1.709850311279297 31 L 34.2901496887207 31 L 18 2.039735794067383 M 18 0 L 36 32 L 0 32 L 18 0 Z" stroke="none" fill="#000"/>
      </g>
      <g id="Polygon_19" data-name="Polygon 19" transform="translate(-1533 -2158) rotate(180)" fill="#86d7e3">
        <path d="M 35.14507293701172 31.5 L 0.8549256324768066 31.5 L 18 1.019867777824402 L 35.14507293701172 31.5 Z" stroke="none"/>
        <path d="M 18 2.039735794067383 L 1.709850311279297 31 L 34.2901496887207 31 L 18 2.039735794067383 M 18 0 L 36 32 L 0 32 L 18 0 Z" stroke="none" fill="#000"/>
      </g>
      <g id="Polygon_23" data-name="Polygon 23" transform="translate(-1605 -2221)" fill="#86d7e3">
        <path d="M 35.13150405883789 30.5 L 0.8684951663017273 30.5 L 18 0.9957416653633118 L 35.13150405883789 30.5 Z" stroke="none"/>
        <path d="M 18 1.991500854492188 L 1.73699951171875 30 L 34.26300048828125 30 L 18 1.991500854492188 M 18 0 L 36 31 L 0 31 L 18 0 Z" stroke="none" fill="#000"/>
      </g>
      <g id="Polygon_25" data-name="Polygon 25" transform="translate(-1569 -2221)" fill="#86d7e3">
        <path d="M 35.13150405883789 30.5 L 0.8684951663017273 30.5 L 18 0.9957416653633118 L 35.13150405883789 30.5 Z" stroke="none"/>
        <path d="M 18 1.991500854492188 L 1.73699951171875 30 L 34.26300048828125 30 L 18 1.991500854492188 M 18 0 L 36 31 L 0 31 L 18 0 Z" stroke="none" fill="#000"/>
      </g>
      <g id="Polygon_26" data-name="Polygon 26" transform="translate(-1515 -2190) rotate(180)" fill="#86d7e3">
        <path d="M 35.13150405883789 30.5 L 0.8684951663017273 30.5 L 18 0.9957416653633118 L 35.13150405883789 30.5 Z" stroke="none"/>
        <path d="M 18 1.991500854492188 L 1.73699951171875 30 L 34.26300048828125 30 L 18 1.991500854492188 M 18 0 L 36 31 L 0 31 L 18 0 Z" stroke="none" fill="#000"/>
      </g>
      <g id="Polygon_34" data-name="Polygon 34" transform="translate(-1641 -2158)" fill="#86d7e3">
        <path d="M 35.13150405883789 30.5 L 0.8684951663017273 30.5 L 18 0.9957416653633118 L 35.13150405883789 30.5 Z" stroke="none"/>
        <path d="M 18 1.991500854492188 L 1.73699951171875 30 L 34.26300048828125 30 L 18 1.991500854492188 M 18 0 L 36 31 L 0 31 L 18 0 Z" stroke="none" fill="#000"/>
      </g>
      <g id="Polygon_35" data-name="Polygon 35" transform="translate(-1587 -2127) rotate(180)" fill="#86d7e3">
        <path d="M 35.13150405883789 30.5 L 0.8684951663017273 30.5 L 18 0.9957416653633118 L 35.13150405883789 30.5 Z" stroke="none"/>
        <path d="M 18 1.991500854492188 L 1.73699951171875 30 L 34.26300048828125 30 L 18 1.991500854492188 M 18 0 L 36 31 L 0 31 L 18 0 Z" stroke="none" fill="#000"/>
      </g>
      <g id="Polygon_36" data-name="Polygon 36" transform="translate(-1605 -2158)" fill="#86d7e3">
        <path d="M 35.13150405883789 30.5 L 0.8684951663017273 30.5 L 18 0.9957416653633118 L 35.13150405883789 30.5 Z" stroke="none"/>
        <path d="M 18 1.991500854492188 L 1.73699951171875 30 L 34.26300048828125 30 L 18 1.991500854492188 M 18 0 L 36 31 L 0 31 L 18 0 Z" stroke="none" fill="#000"/>
      </g>
      <g id="Polygon_37" data-name="Polygon 37" transform="translate(-1551 -2127) rotate(180)" fill="#86d7e3">
        <path d="M 35.13150405883789 30.5 L 0.8684951663017273 30.5 L 18 0.9957416653633118 L 35.13150405883789 30.5 Z" stroke="none"/>
        <path d="M 18 1.991500854492188 L 1.73699951171875 30 L 34.26300048828125 30 L 18 1.991500854492188 M 18 0 L 36 31 L 0 31 L 18 0 Z" stroke="none" fill="#000"/>
      </g>
      <g id="Polygon_38" data-name="Polygon 38" transform="translate(-1569 -2158)" fill="#86d7e3">
        <path d="M 35.13150405883789 30.5 L 0.8684951663017273 30.5 L 18 0.9957416653633118 L 35.13150405883789 30.5 Z" stroke="none"/>
        <path d="M 18 1.991500854492188 L 1.73699951171875 30 L 34.26300048828125 30 L 18 1.991500854492188 M 18 0 L 36 31 L 0 31 L 18 0 Z" stroke="none" fill="#000"/>
      </g>
      <g id="Polygon_59" data-name="Polygon 59" transform="translate(-1569 -2096)" fill="#86d7e3">
        <path d="M 35.13150405883789 30.5 L 0.8684951663017273 30.5 L 18 0.9957416653633118 L 35.13150405883789 30.5 Z" stroke="none"/>
        <path d="M 18 1.991500854492188 L 1.73699951171875 30 L 34.26300048828125 30 L 18 1.991500854492188 M 18 0 L 36 31 L 0 31 L 18 0 Z" stroke="none" fill="#000"/>
      </g>
      <g id="Polygon_60" data-name="Polygon 60" transform="translate(-1551 -2065) rotate(180)" fill="#86d7e3">
        <path d="M 35.13150405883789 30.5 L 0.8684951663017273 30.5 L 18 0.9957416653633118 L 35.13150405883789 30.5 Z" stroke="none"/>
        <path d="M 18 1.991500854492188 L 1.73699951171875 30 L 34.26300048828125 30 L 18 1.991500854492188 M 18 0 L 36 31 L 0 31 L 18 0 Z" stroke="none" fill="#000"/>
      </g>
      <g id="Polygon_64" data-name="Polygon 64" transform="translate(-1533 -2033) rotate(180)" fill="#86d7e3">
        <path d="M 35.14507293701172 31.5 L 0.8549256324768066 31.5 L 18 1.019867777824402 L 35.14507293701172 31.5 Z" stroke="none"/>
        <path d="M 18 2.039735794067383 L 1.709850311279297 31 L 34.2901496887207 31 L 18 2.039735794067383 M 18 0 L 36 32 L 0 32 L 18 0 Z" stroke="none" fill="#000"/>
      </g>
      <g id="Polygon_65" data-name="Polygon 65" transform="translate(-1587 -2065)" fill="#86d7e3">
        <path d="M 35.14507293701172 31.5 L 0.8549256324768066 31.5 L 18 1.019867777824402 L 35.14507293701172 31.5 Z" stroke="none"/>
        <path d="M 18 2.039735794067383 L 1.709850311279297 31 L 34.2901496887207 31 L 18 2.039735794067383 M 18 0 L 36 32 L 0 32 L 18 0 Z" stroke="none" fill="#000"/>
      </g>
      <g id="Polygon_66" data-name="Polygon 66" transform="translate(-1569 -2033) rotate(180)" fill="#86d7e3">
        <path d="M 35.14507293701172 31.5 L 0.8549256324768066 31.5 L 18 1.019867777824402 L 35.14507293701172 31.5 Z" stroke="none"/>
        <path d="M 18 2.039735794067383 L 1.709850311279297 31 L 34.2901496887207 31 L 18 2.039735794067383 M 18 0 L 36 32 L 0 32 L 18 0 Z" stroke="none" fill="#000"/>
      </g>
      <g id="Polygon_69" data-name="Polygon 69" transform="translate(-1605 -2096)" fill="#86d7e3">
        <path d="M 35.13150405883789 30.5 L 0.8684951663017273 30.5 L 18 0.9957416653633118 L 35.13150405883789 30.5 Z" stroke="none"/>
        <path d="M 18 1.991500854492188 L 1.73699951171875 30 L 34.26300048828125 30 L 18 1.991500854492188 M 18 0 L 36 31 L 0 31 L 18 0 Z" stroke="none" fill="#000"/>
      </g>
      <g id="Polygon_70" data-name="Polygon 70" transform="translate(-1587 -2065) rotate(180)" fill="#86d7e3">
        <path d="M 35.13150405883789 30.5 L 0.8684951663017273 30.5 L 18 0.9957416653633118 L 35.13150405883789 30.5 Z" stroke="none"/>
        <path d="M 18 1.991500854492188 L 1.73699951171875 30 L 34.26300048828125 30 L 18 1.991500854492188 M 18 0 L 36 31 L 0 31 L 18 0 Z" stroke="none" fill="#000"/>
      </g>
      <g id="Polygon_77" data-name="Polygon 77" transform="translate(-1533 -2096) rotate(180)" fill="#86d7e3">
        <path d="M 35.13150405883789 30.5 L 0.8684951663017273 30.5 L 18 0.9957416653633118 L 35.13150405883789 30.5 Z" stroke="none"/>
        <path d="M 18 1.991500854492188 L 1.73699951171875 30 L 34.26300048828125 30 L 18 1.991500854492188 M 18 0 L 36 31 L 0 31 L 18 0 Z" stroke="none" fill="#000"/>
      </g>
      <g id="Polygon_80" data-name="Polygon 80" transform="translate(-1587 -2127)" fill="#86d7e3">
        <path d="M 35.13150405883789 30.5 L 0.8684951663017273 30.5 L 18 0.9957416653633118 L 35.13150405883789 30.5 Z" stroke="none"/>
        <path d="M 18 1.991500854492188 L 1.73699951171875 30 L 34.26300048828125 30 L 18 1.991500854492188 M 18 0 L 36 31 L 0 31 L 18 0 Z" stroke="none" fill="#000"/>
      </g>
      <g id="Polygon_81" data-name="Polygon 81" transform="translate(-1569 -2096) rotate(180)" fill="#86d7e3">
        <path d="M 35.13150405883789 30.5 L 0.8684951663017273 30.5 L 18 0.9957416653633118 L 35.13150405883789 30.5 Z" stroke="none"/>
        <path d="M 18 1.991500854492188 L 1.73699951171875 30 L 34.26300048828125 30 L 18 1.991500854492188 M 18 0 L 36 31 L 0 31 L 18 0 Z" stroke="none" fill="#000"/>
      </g>
      <g id="Polygon_82" data-name="Polygon 82" transform="translate(-1623 -2127)" fill="#86d7e3">
        <path d="M 35.13150405883789 30.5 L 0.8684951663017273 30.5 L 18 0.9957416653633118 L 35.13150405883789 30.5 Z" stroke="none"/>
        <path d="M 18 1.991500854492188 L 1.73699951171875 30 L 34.26300048828125 30 L 18 1.991500854492188 M 18 0 L 36 31 L 0 31 L 18 0 Z" stroke="none" fill="#000"/>
      </g>
      <g id="Polygon_83" data-name="Polygon 83" transform="translate(-1605 -2096) rotate(180)" fill="#86d7e3">
        <path d="M 35.13150405883789 30.5 L 0.8684951663017273 30.5 L 18 0.9957416653633118 L 35.13150405883789 30.5 Z" stroke="none"/>
        <path d="M 18 1.991500854492188 L 1.73699951171875 30 L 34.26300048828125 30 L 18 1.991500854492188 M 18 0 L 36 31 L 0 31 L 18 0 Z" stroke="none" fill="#000"/>
      </g>
    </g>
  </g>
</svg>
